<?xml version="1.0" standalone="no"?>
<!DOCTYPE svg PUBLIC "-//W3C//DTD SVG 20010904//EN"
 "http://www.w3.org/TR/2001/REC-SVG-20010904/DTD/svg10.dtd">
<svg version="1.0" xmlns="http://www.w3.org/2000/svg"
 width="512.000000pt" height="512.000000pt" viewBox="0 0 512.000000 512.000000"
 preserveAspectRatio="xMidYMid meet">
<metadata>
Created by potrace 1.14, written by Peter Selinger 2001-2017
</metadata>
<g transform="translate(0.000000,512.000000) scale(0.100000,-0.100000)"
fill="#000000" stroke="none">
<path d="M2590 4487 c-27 -14 -26 -14 -160 -427 -204 -631 -221 -686 -234
-720 l-12 -35 -621 -5 c-459 -4 -625 -8 -634 -17 -22 -22 -18 -60 9 -85 15
-14 135 -103 267 -198 132 -95 274 -199 316 -229 42 -31 117 -85 165 -120 49
-36 121 -88 160 -117 l72 -53 -70 -213 c-38 -117 -93 -287 -123 -378 -29 -91
-83 -256 -119 -368 -36 -112 -66 -212 -66 -222 0 -20 35 -50 58 -50 7 0 92 57
188 127 97 71 204 148 239 173 34 25 73 53 86 63 13 10 132 96 263 191 l240
174 105 -77 c427 -311 878 -638 888 -644 20 -13 60 3 71 28 9 20 -3 68 -78
297 -256 790 -292 900 -288 903 1 2 147 107 323 234 176 128 327 237 335 244
8 7 38 28 65 47 28 19 52 38 55 41 3 3 51 38 107 77 55 40 104 80 107 88 12
31 6 63 -13 74 -13 6 -230 10 -635 10 l-615 0 -26 83 c-34 105 -242 746 -306
943 -40 122 -54 153 -73 162 -17 7 -30 7 -46 -1z"/>
<path d="M1617 4457 c-8 -7 -25 -43 -37 -82 -12 -38 -24 -77 -26 -85 -3 -8 -6
-16 -6 -17 0 -1 -11 -33 -23 -70 l-22 -68 -169 -1 c-94 0 -175 -4 -181 -7 -25
-15 5 -47 129 -137 71 -52 132 -98 134 -102 3 -4 -18 -78 -46 -163 -29 -86
-49 -163 -46 -171 8 -21 33 -17 69 9 18 13 76 56 129 95 54 40 102 72 108 72
6 0 37 -19 68 -42 265 -196 274 -196 207 3 -20 57 -42 125 -50 151 l-14 47
140 101 c76 56 139 105 139 110 0 30 -29 35 -188 34 -107 -1 -165 3 -171 10
-4 6 -30 80 -57 163 -26 84 -54 155 -60 157 -7 3 -19 -1 -27 -7z"/>
<path d="M3678 4438 c-7 -18 -32 -94 -57 -168 l-46 -135 -168 -1 c-233 -1
-238 -9 -70 -129 59 -43 119 -88 133 -99 l26 -21 -52 -160 c-28 -87 -50 -165
-47 -172 10 -26 42 -11 171 83 73 53 138 94 145 91 7 -3 70 -46 139 -96 122
-88 150 -102 163 -81 4 6 -16 82 -44 169 -28 87 -51 161 -51 165 0 3 61 51
135 106 95 70 135 106 135 120 0 11 -6 20 -12 21 -7 0 -87 2 -177 2 l-164 2
-53 159 c-62 184 -82 212 -106 144z"/>
<path d="M1042 2663 c-5 -10 -31 -84 -58 -165 l-48 -148 -173 0 c-242 0 -242
0 -12 -168 l106 -77 -52 -160 c-53 -163 -57 -202 -17 -188 9 4 75 49 145 101
71 51 134 91 140 89 7 -3 70 -48 142 -100 106 -78 133 -94 148 -86 21 12 23
-1 -39 193 -25 76 -43 144 -41 151 3 7 56 49 119 94 152 109 148 105 148 130
0 21 -3 21 -178 21 l-178 0 -33 108 c-56 184 -72 222 -92 222 -10 0 -22 -8
-27 -17z"/>
<path d="M4054 2666 c-3 -7 -27 -80 -54 -162 l-49 -149 -175 -3 c-147 -2 -175
-5 -180 -18 -3 -9 -4 -20 -1 -24 3 -5 63 -50 133 -101 70 -50 130 -94 134 -98
4 -4 -15 -76 -42 -161 -54 -167 -57 -185 -36 -193 14 -6 35 8 187 118 46 33
89 64 96 68 13 8 22 2 212 -132 81 -58 111 -67 111 -32 0 9 -23 85 -51 170
-28 84 -47 157 -42 161 4 4 60 44 123 90 127 91 152 114 143 135 -4 12 -36 15
-178 15 l-173 0 -10 28 c-6 15 -27 79 -47 142 -20 63 -40 125 -45 138 -11 24
-47 30 -56 8z"/>
<path d="M2539 1608 c-29 -90 -54 -165 -56 -167 -1 -2 -75 -3 -165 -3 -163 0
-202 -6 -192 -33 3 -8 63 -56 132 -106 70 -51 131 -96 136 -100 5 -4 -15 -79
-43 -167 -28 -88 -51 -164 -51 -170 0 -13 29 -24 43 -15 7 4 70 49 140 100
122 89 130 93 150 79 12 -8 47 -33 77 -56 155 -113 190 -134 205 -119 12 12 7
36 -40 177 l-53 163 112 83 c61 46 122 89 134 97 25 16 34 33 26 53 -4 11 -37
14 -152 14 -81 0 -159 1 -174 1 -25 1 -29 7 -64 119 -20 64 -40 126 -44 137
-25 66 -31 75 -49 75 -16 0 -28 -27 -72 -162z"/>
</g>
</svg>
